<?xml version="1.0" encoding="UTF-8" standalone="no"?>
<svg xmlns="http://www.w3.org/2000/svg" version="1.1" xmlns:xlink="http://www.w3.org/1999/xlink" xmlns:svgjs="http://svgjs.dev/svgjs" width="1000" height="1000" viewBox="0 0 1000 1000"><rect width="1000" height="1000" fill="#010c80"></rect><g transform="matrix(0.7,0,0,0.7,149.57575757575756,287.91233222208484)"><svg viewBox="0 0 396 240" data-background-color="#010c80" preserveAspectRatio="xMidYMid meet" height="606" width="1000" xmlns="http://www.w3.org/2000/svg" xmlns:xlink="http://www.w3.org/1999/xlink"><g id="tight-bounds" transform="matrix(1,0,0,1,0.2400000000000091,-0.006977211929182658)"><svg viewBox="0 0 395.52 240.01394427892126" height="240.01394427892126" width="395.52"><g><svg viewBox="0 0 407.3619317983379 247.2" height="240.01394427892126" width="395.52"><g><svg viewBox="0 0 215.70083102493072 247.2" height="247.2" width="215.70083102493072"><g id="textblocktransform"><svg viewBox="0 0 215.70083102493072 247.2" height="247.2" width="215.70083102493072" id="textblock"><g><svg viewBox="0 0 215.70083102493072 247.2" height="247.2" width="215.70083102493072"><g transform="matrix(1,0,0,1,0,0)"><svg width="215.70083102493072" viewBox="-1.350000023841858 -35.5 31.5 36.099998474121094" height="247.2" data-palette-color="#77d4fc"><path d="M3-0.65L3-0.65Q2.65 0.45 1.43 0.45 0.2 0.45-1.35-0.9L-1.35-0.9Q0.15-5.3 5-15.08 9.85-24.85 11.3-29.7L11.3-29.7Q11.5-30.5 11.5-30.8L11.5-30.8Q11.5-31.55 10.4-33.1L10.4-33.1 10-33.65 10.1-34.3Q14.35-35.5 19.5-35.5L19.5-35.5 22.55-35.3Q23.1-34.55 23.4-33L23.4-33Q24.2-29.2 24.2-13.45L24.2-13.45Q24.2-7.35 25.25-4.85L25.25-4.85Q25.65-3.9 26.05-3.9 26.45-3.9 28.5-4.9L28.5-4.9 29.15-5.2 30.15-3.4Q28.25-1.55 25.93-0.48 23.6 0.6 21.65 0.6L21.65 0.6Q16.6 0.6 16.6-7.25L16.6-7.25 16.6-11.2Q15.3-11.5 12.65-11.5 10-11.5 6.85-11L6.85-11Q4.35-5.2 3-0.65ZM8.45-14.6L16.7-14.6 16.75-20.4Q16.75-28 16.1-30.7L16.1-30.7Q15.7-30.7 15.5-30.6L15.5-30.6Q14.1-26.75 12.88-24.08 11.65-21.4 10.23-18.38 8.8-15.35 8.45-14.6L8.45-14.6Z" opacity="1" transform="matrix(1,0,0,1,0,0)" fill="#77d4fc" class="undefined-text-0" data-fill-palette-color="primary" id="text-0"></path></svg></g></svg></g></svg></g></svg></g><g transform="matrix(1,0,0,1,274.05881822493075,56.9484432132964)"><svg viewBox="0 0 133.3031135734072 133.3031135734072" height="133.3031135734072" width="133.3031135734072"><g data-palette-color="#4b91f1"><rect width="36.4361843767313" height="133.3031135734072" fill="#4b91f1" stroke="transparent" data-fill-palette-color="accent" x="0" fill-opacity="1"></rect><rect width="36.4361843767313" height="133.3031135734072" fill="#4b91f1" stroke="transparent" data-fill-palette-color="accent" x="44.434371191135725" fill-opacity="0.75"></rect><rect width="36.4361843767313" height="133.3031135734072" fill="#4b91f1" stroke="transparent" data-fill-palette-color="accent" x="88.86874238227145" fill-opacity="0.5"></rect></g></svg></g></svg></g><defs></defs></svg><rect width="395.52" height="240.01394427892126" fill="none" stroke="none" visibility="hidden"></rect></g></svg></g></svg>